<svg width="151" height="24" viewBox="0 0 151 24" fill="none" xmlns="http://www.w3.org/2000/svg">
<g id="HH logo full/dark" clip-path="url(#clip0_68_3710)">
<path id="Vector" d="M12.5 24C19.1274 24 24.5 18.6274 24.5 12C24.5 5.37258 19.1274 0 12.5 0C5.87258 0 0.5 5.37258 0.5 12C0.5 18.6274 5.87258 24 12.5 24Z" fill="#8350CC"/>
<path id="Vector_2" d="M12.5 24C5.88295 24 0.5 18.6168 0.5 12C0.5 5.38323 5.88295 0 12.5 0C19.117 0 24.5 5.38323 24.5 11.9997C24.5 18.6168 19.117 24 12.5 24ZM12.5 1.11987C6.50056 1.11987 1.61987 6.00084 1.61987 11.9997C1.61987 17.9992 6.50056 22.8798 12.5 22.8798C18.4994 22.8798 23.3801 17.9992 23.3801 12C23.3801 6.00084 18.4992 1.11987 12.5 1.11987Z" fill="url(#paint0_linear_68_3710)"/>
<path id="Vector_3" d="M12.5 5.87088C13.1865 5.87088 13.7431 5.31435 13.7431 4.62782C13.7431 3.9413 13.1865 3.38477 12.5 3.38477C11.8135 3.38477 11.257 3.9413 11.257 4.62782C11.257 5.31435 11.8135 5.87088 12.5 5.87088Z" fill="url(#paint1_linear_68_3710)"/>
<path id="Vector_4" d="M9.01271 7.06302C9.69923 7.06302 10.2558 6.50649 10.2558 5.81996C10.2558 5.13344 9.69923 4.5769 9.01271 4.5769C8.32619 4.5769 7.76965 5.13344 7.76965 5.81996C7.76965 6.50649 8.32619 7.06302 9.01271 7.06302Z" fill="url(#paint2_linear_68_3710)"/>
<path id="Vector_5" d="M15.9873 7.06302C16.6738 7.06302 17.2303 6.50649 17.2303 5.81996C17.2303 5.13344 16.6738 4.5769 15.9873 4.5769C15.3007 4.5769 14.7442 5.13344 14.7442 5.81996C14.7442 6.50649 15.3007 7.06302 15.9873 7.06302Z" fill="url(#paint3_linear_68_3710)"/>
<path id="Vector_6" d="M12.5 21.8126C13.0319 21.8126 13.5535 21.7687 14.0628 21.6866L12.5 7.25818L10.9372 21.6869C11.4465 21.7687 11.968 21.8126 12.5 21.8126Z" fill="url(#paint4_linear_68_3710)"/>
<path id="Vector_7" d="M6.88917 20.0432L8.40548 8.08044L4.3689 17.4874C5.04502 18.486 5.90144 19.3522 6.88917 20.0432Z" fill="url(#paint5_linear_68_3710)"/>
<path id="Vector_8" d="M18.1109 20.0432L16.5945 8.08044L20.6311 17.4874C19.955 18.486 19.0986 19.3522 18.1109 20.0432Z" fill="url(#paint6_linear_68_3710)"/>
<path id="Vector_9" d="M36.6856 7.13494H38.7226V16.8653H36.6856V12.8653H32.537V16.8653H30.5V7.13494H32.537V11.108H36.6856V7.13494ZM46.9449 17C44.0592 17 41.9272 15.0472 41.9272 11.9966C41.9272 8.93939 44.0592 7 46.9449 7C49.8238 7 51.9559 8.93939 51.9559 11.9966C51.9559 15.0471 49.8238 17 46.9449 17ZM46.9449 15.1482C48.6356 15.1482 49.9325 13.9697 49.9325 11.9967C49.9325 10.0303 48.6357 8.85863 46.9449 8.85863C45.2542 8.85863 43.9574 10.0303 43.9574 11.9967C43.9574 13.9697 45.2542 15.1482 46.9449 15.1482ZM60.3482 16.8653L57.7951 12.5825H57.2044V16.8653H55.1674V7.13494H58.7254C60.9457 7.13494 61.8826 8.43462 61.8826 10.0441C61.8826 11.3504 61.1358 12.1989 59.8049 12.4818L62.7585 16.8656L60.3482 16.8653ZM57.2045 8.81126V11.1345H58.4063C59.4927 11.1345 59.934 10.6765 59.934 9.9762C59.934 9.28257 59.4927 8.81119 58.4063 8.81119L57.2045 8.81126ZM65.59 16.8653V7.13494H67.627V16.8653H65.59ZM73.2829 15.0808H77.9951V16.8653H70.8455V15.2693L75.4966 8.91242H70.8523V7.13466H77.9067V8.73065L73.2829 15.0808ZM85.5455 17C82.6598 17 80.5278 15.0472 80.5278 11.9966C80.5278 8.93939 82.6598 7 85.5455 7C88.4244 7 90.5565 8.93939 90.5565 11.9966C90.5565 15.0471 88.4244 17 85.5455 17ZM85.5455 15.1482C87.2362 15.1482 88.5331 13.9697 88.5331 11.9967C88.5331 10.0303 87.2363 8.85863 85.5455 8.85863C83.8548 8.85863 82.558 10.0303 82.558 11.9967C82.558 13.9697 83.8548 15.1482 85.5455 15.1482ZM100.47 7.13494H102.5V16.8653H100.144L95.7983 9.90904V16.8653H93.7682V7.13494H96.0971L100.47 14.0505V7.13494Z" fill="url(#paint7_linear_68_3710)"/>
<path id="Vector_10" d="M116.454 7.0002H118.415V16.8635H116.454V12.8088H112.461V16.8635H110.5V7.0002H112.461V11.0275H116.454V7.0002ZM125.644 17C123.572 17 121.951 15.8942 121.951 13.4096V7H123.912V13.1297C123.912 14.6314 124.676 15.1911 125.644 15.1911C126.617 15.1911 127.389 14.6246 127.389 13.1297V7H129.349V13.4096C129.349 15.8942 127.722 17 125.644 17ZM139.337 7.0002H141.291V16.8635H139.023L134.84 9.81219V16.8635H132.886V7.0002H135.127L139.337 14.0103V7.0002ZM150.5 7.0002V8.80224H148.258V16.8636H146.317V8.80224H144.062V7.0002H150.5Z" fill="url(#paint8_linear_68_3710)"/>
</g>
<defs>
<linearGradient id="paint0_linear_68_3710" x1="0.5" y1="0" x2="24.5" y2="0" gradientUnits="userSpaceOnUse">
<stop stop-color="#00FF8F"/>
<stop offset="1" stop-color="#00A1FF"/>
</linearGradient>
<linearGradient id="paint1_linear_68_3710" x1="11.257" y1="3.38477" x2="13.7431" y2="3.38477" gradientUnits="userSpaceOnUse">
<stop stop-color="#00FF8F"/>
<stop offset="1" stop-color="#00A1FF"/>
</linearGradient>
<linearGradient id="paint2_linear_68_3710" x1="7.76965" y1="4.5769" x2="10.2558" y2="4.5769" gradientUnits="userSpaceOnUse">
<stop stop-color="#00FF8F"/>
<stop offset="1" stop-color="#00A1FF"/>
</linearGradient>
<linearGradient id="paint3_linear_68_3710" x1="14.7442" y1="4.5769" x2="17.2303" y2="4.5769" gradientUnits="userSpaceOnUse">
<stop stop-color="#00FF8F"/>
<stop offset="1" stop-color="#00A1FF"/>
</linearGradient>
<linearGradient id="paint4_linear_68_3710" x1="10.9372" y1="7.25818" x2="14.0628" y2="7.25818" gradientUnits="userSpaceOnUse">
<stop stop-color="#00FF8F"/>
<stop offset="1" stop-color="#00A1FF"/>
</linearGradient>
<linearGradient id="paint5_linear_68_3710" x1="4.3689" y1="8.08044" x2="8.40548" y2="8.08044" gradientUnits="userSpaceOnUse">
<stop stop-color="#00FF8F"/>
<stop offset="1" stop-color="#00A1FF"/>
</linearGradient>
<linearGradient id="paint6_linear_68_3710" x1="16.5945" y1="8.08044" x2="20.6311" y2="8.08044" gradientUnits="userSpaceOnUse">
<stop stop-color="#00FF8F"/>
<stop offset="1" stop-color="#00A1FF"/>
</linearGradient>
<linearGradient id="paint7_linear_68_3710" x1="30.5" y1="7" x2="102.5" y2="7" gradientUnits="userSpaceOnUse">
<stop stop-color="#00FF8F"/>
<stop offset="1" stop-color="#00A1FF"/>
</linearGradient>
<linearGradient id="paint8_linear_68_3710" x1="110.5" y1="7" x2="150.5" y2="7" gradientUnits="userSpaceOnUse">
<stop stop-color="#00FF8F"/>
<stop offset="1" stop-color="#00A1FF"/>
</linearGradient>
<clipPath id="clip0_68_3710">
<rect width="150" height="24" fill="white" transform="translate(0.5)"/>
</clipPath>
</defs>
</svg>
