<svg width="24" height="24" viewBox="0 0 24 24" fill="none" xmlns="http://www.w3.org/2000/svg">
<g id="Group 10">
<circle id="Ellipse 28" cx="12" cy="12" r="12" fill="#8350CC"/>
<g id="SvgjsG2323">
<g id="Group">
<path id="Vector" d="M12 24C5.38295 24 0 18.6168 0 12C0 5.38323 5.38295 0 12 0C18.6171 0 24 5.38323 24 11.9997C24 18.6168 18.6171 24 12 24ZM12 1.11987C6.00056 1.11987 1.11987 6.00084 1.11987 11.9997C1.11987 17.9992 6.00056 22.8798 12 22.8798C17.9994 22.8798 22.8801 17.9992 22.8801 12C22.8801 6.00084 17.9992 1.11987 12 1.11987Z" fill="url(#paint0_linear_68_3632)"/>
<path id="Vector_2" d="M12 5.87088C12.6865 5.87088 13.2431 5.31435 13.2431 4.62782C13.2431 3.9413 12.6865 3.38477 12 3.38477C11.3135 3.38477 10.7569 3.9413 10.7569 4.62782C10.7569 5.31435 11.3135 5.87088 12 5.87088Z" fill="url(#paint1_linear_68_3632)"/>
<path id="Vector_3" d="M8.51271 7.06302C9.19923 7.06302 9.75577 6.50649 9.75577 5.81996C9.75577 5.13344 9.19923 4.5769 8.51271 4.5769C7.82619 4.5769 7.26965 5.13344 7.26965 5.81996C7.26965 6.50649 7.82619 7.06302 8.51271 7.06302Z" fill="url(#paint2_linear_68_3632)"/>
<path id="Vector_4" d="M15.4873 7.06302C16.1738 7.06302 16.7304 6.50649 16.7304 5.81996C16.7304 5.13344 16.1738 4.5769 15.4873 4.5769C14.8008 4.5769 14.2442 5.13344 14.2442 5.81996C14.2442 6.50649 14.8008 7.06302 15.4873 7.06302Z" fill="url(#paint3_linear_68_3632)"/>
<path id="Vector_5" d="M12 21.8126C12.5319 21.8126 13.0535 21.7687 13.5628 21.6866L12 7.25818L10.4372 21.6869C10.9465 21.7687 11.4681 21.8126 12 21.8126Z" fill="url(#paint4_linear_68_3632)"/>
<path id="Vector_6" d="M6.38916 20.0432L7.90546 8.08044L3.86888 17.4874C4.545 18.486 5.40143 19.3522 6.38916 20.0432Z" fill="url(#paint5_linear_68_3632)"/>
<path id="Vector_7" d="M17.6109 20.0432L16.0945 8.08044L20.1311 17.4874C19.455 18.486 18.5986 19.3522 17.6109 20.0432Z" fill="url(#paint6_linear_68_3632)"/>
</g>
</g>
</g>
<defs>
<linearGradient id="paint0_linear_68_3632" x1="0" y1="0" x2="24" y2="0" gradientUnits="userSpaceOnUse">
<stop stop-color="#00FF8F"/>
<stop offset="1" stop-color="#00A1FF"/>
</linearGradient>
<linearGradient id="paint1_linear_68_3632" x1="10.7569" y1="3.38477" x2="13.2431" y2="3.38477" gradientUnits="userSpaceOnUse">
<stop stop-color="#00FF8F"/>
<stop offset="1" stop-color="#00A1FF"/>
</linearGradient>
<linearGradient id="paint2_linear_68_3632" x1="7.26965" y1="4.5769" x2="9.75577" y2="4.5769" gradientUnits="userSpaceOnUse">
<stop stop-color="#00FF8F"/>
<stop offset="1" stop-color="#00A1FF"/>
</linearGradient>
<linearGradient id="paint3_linear_68_3632" x1="14.2442" y1="4.5769" x2="16.7304" y2="4.5769" gradientUnits="userSpaceOnUse">
<stop stop-color="#00FF8F"/>
<stop offset="1" stop-color="#00A1FF"/>
</linearGradient>
<linearGradient id="paint4_linear_68_3632" x1="10.4372" y1="7.25818" x2="13.5628" y2="7.25818" gradientUnits="userSpaceOnUse">
<stop stop-color="#00FF8F"/>
<stop offset="1" stop-color="#00A1FF"/>
</linearGradient>
<linearGradient id="paint5_linear_68_3632" x1="3.86888" y1="8.08044" x2="7.90546" y2="8.08044" gradientUnits="userSpaceOnUse">
<stop stop-color="#00FF8F"/>
<stop offset="1" stop-color="#00A1FF"/>
</linearGradient>
<linearGradient id="paint6_linear_68_3632" x1="16.0945" y1="8.08044" x2="20.1311" y2="8.08044" gradientUnits="userSpaceOnUse">
<stop stop-color="#00FF8F"/>
<stop offset="1" stop-color="#00A1FF"/>
</linearGradient>
</defs>
</svg>
