
        <svg xmlns="http://www.w3.org/2000/svg" xmlns:xlink="http://www.w3.org/1999/xlink" version="1.1" width="3145.1853711959648" 
        height="911.2131048482494" viewBox="0 0 3145.1853711959648 911.2131048482494">
			
			<g transform="scale(7.25926855979825) translate(10, 10)">
				<defs id="SvgjsDefs2320"><linearGradient id="SvgjsLinearGradient2329"><stop id="SvgjsStop2330" stop-color="#00ff8f" offset="0"></stop><stop id="SvgjsStop2331" stop-color="#00a1ff" offset="1"></stop></linearGradient><linearGradient id="SvgjsLinearGradient2332"><stop id="SvgjsStop2333" stop-color="#00ff8f" offset="0"></stop><stop id="SvgjsStop2334" stop-color="#00a1ff" offset="1"></stop></linearGradient><linearGradient id="SvgjsLinearGradient2335"><stop id="SvgjsStop2336" stop-color="#00ff8f" offset="0"></stop><stop id="SvgjsStop2337" stop-color="#00a1ff" offset="1"></stop></linearGradient><linearGradient id="SvgjsLinearGradient2338"><stop id="SvgjsStop2339" stop-color="#00ff8f" offset="0"></stop><stop id="SvgjsStop2340" stop-color="#00a1ff" offset="1"></stop></linearGradient></defs><g id="SvgjsG2321" featureKey="sloganFeature-0" transform="matrix(0.8636115271712619,0,0,0.8636115271712619,127.42287262183213,88.08319080743014)" fill="url(#SvgjsLinearGradient2329)"><path d="M4.7559 17.4121 l4.4238 0 l0 2.5879 l-7.3535 0 l0 -14.111 l2.9297 0 l0 11.523 z M21.5137 20.19531 c-4.1504 0 -7.2168 -2.832 -7.2168 -7.2559 c0 -4.4336 3.0664 -7.2461 7.2168 -7.2461 c4.1406 0 7.207 2.8125 7.207 7.2461 c0 4.4238 -3.0664 7.2559 -7.207 7.2559 z M21.5137 17.5098 c2.4316 0 4.2969 -1.709 4.2969 -4.5703 c0 -2.8516 -1.8652 -4.5508 -4.2969 -4.5508 s-4.2969 1.6992 -4.2969 4.5508 c0 2.8613 1.8652 4.5703 4.2969 4.5703 z M41.5137 20.19531 c-4.1504 0 -7.2168 -2.832 -7.2168 -7.2559 c0 -4.4336 3.0664 -7.2461 7.2168 -7.2461 c4.1406 0 7.207 2.8125 7.207 7.2461 c0 4.4238 -3.0664 7.2559 -7.207 7.2559 z M41.5137 17.5098 c2.4316 0 4.2969 -1.709 4.2969 -4.5703 c0 -2.8516 -1.8652 -4.5508 -4.2969 -4.5508 s-4.2969 1.6992 -4.2969 4.5508 c0 2.8613 1.8652 4.5703 4.2969 4.5703 z M63.6135 20 l-4.3848 -5.9961 l-1.0352 0 l0 5.9961 l-2.9297 0 l0 -14.111 l2.9297 0 l0 5.5469 l0.99609 0 l4.4238 -5.5469 l3.5742 0 l-5.4688 6.748 l5.6348 7.3633 l-3.7402 0 z M89.921878125 12.5488 c1.5918 0.43945 2.6563 1.4844 2.6563 3.4961 c0 2.3828 -1.4453 3.9551 -4.4238 3.9551 l-5.8105 0 l0 -14.111 l4.5703 0 c3.0469 0 4.6484 1.4648 4.6484 3.8672 c0 1.2402 -0.53711 2.2559 -1.6406 2.793 z M86.943378125 8.32 l-1.7773 0 l0 3.3203 l1.9043 0 c1.25 0 1.7969 -0.74219 1.7969 -1.6992 c0 -0.9375 -0.61523 -1.6211 -1.9238 -1.6211 z M87.607378125 17.4902 c1.582 0 2.1289 -0.84961 2.1289 -1.7676 c0 -0.9375 -0.53711 -1.8262 -2.1875 -1.8262 l-2.3828 0 l0 3.5938 l2.4414 0 z M107.21703125 8.467 l-5.2344 0 l0 3.2031 l4.6387 0 l0 2.5488 l-4.6387 0 l0 3.1934 l5.2344 0 l0 2.5879 l-8.1836 0 l0 -14.111 l8.1836 0 l0 2.5781 z M124.667859375 5.888999999999999 l-4.6387 7.3535 l0 6.7578 l-2.9395 0 l0 -6.6895 l-4.668 -7.4219 l3.2422 0 l2.8809 4.8047 l2.8906 -4.8047 l3.2324 0 z M136.748075 20.19531 c-4.1504 0 -7.2168 -2.832 -7.2168 -7.2559 c0 -4.4336 3.0664 -7.2461 7.2168 -7.2461 c4.1406 0 7.207 2.8125 7.207 7.2461 c0 4.4238 -3.0664 7.2559 -7.207 7.2559 z M136.748075 17.5098 c2.4316 0 4.2969 -1.709 4.2969 -4.5703 c0 -2.8516 -1.8652 -4.5508 -4.2969 -4.5508 s-4.2969 1.6992 -4.2969 4.5508 c0 2.8613 1.8652 4.5703 4.2969 4.5703 z M160.136875 5.888999999999999 l2.9199 0 l0 14.111 l-3.3887 0 l-6.25 -10.088 l0 10.088 l-2.9199 0 l0 -14.111 l3.3496 0 l6.2891 10.029 l0 -10.029 z M170.55666875 20 l0 -14.111 l5.1074 0 c4.502 0 6.7285 2.832 6.7285 7.0508 c0 4.2285 -2.2266 7.0605 -6.7285 7.0605 l-5.1074 0 z M173.48636875 17.4121 l2.0313 0 c2.5977 0 3.7891 -1.6211 3.7891 -4.4727 s-1.1914 -4.4727 -3.7891 -4.4727 l-2.0313 0 l0 8.9453 z"></path></g><g id="SvgjsG2322" featureKey="nameLeftFeature-0" transform="matrix(1.9191367270472486,0,0,1.9191367270472486,-3.5053021997012865,4.0737573498447475)" fill="url(#SvgjsLinearGradient2332)"><path d="M10.723 5.888999999999999 l2.9297 0 l0 14.111 l-2.9297 0 l0 -5.8008 l-5.9668 0 l0 5.8008 l-2.9297 0 l0 -14.111 l2.9297 0 l0 5.7617 l5.9668 0 l0 -5.7617 z M25.47854375 20.19531 c-4.1504 0 -7.2168 -2.832 -7.2168 -7.2559 c0 -4.4336 3.0664 -7.2461 7.2168 -7.2461 c4.1406 0 7.207 2.8125 7.207 7.2461 c0 4.4238 -3.0664 7.2559 -7.207 7.2559 z M25.47854375 17.5098 c2.4316 0 4.2969 -1.709 4.2969 -4.5703 c0 -2.8516 -1.8652 -4.5508 -4.2969 -4.5508 s-4.2969 1.6992 -4.2969 4.5508 c0 2.8613 1.8652 4.5703 4.2969 4.5703 z M44.755815625 20 l-3.6719 -6.2109 l-0.84961 0 l0 6.2109 l-2.9297 0 l0 -14.111 l5.1172 0 c3.1934 0 4.541 1.8848 4.541 4.2188 c0 1.8945 -1.0742 3.125 -2.9883 3.5352 l4.248 6.3574 l-3.4668 0 z M40.234415625 8.32 l0 3.3691 l1.7285 0 c1.5625 0 2.1973 -0.66406 2.1973 -1.6797 c0 -1.0059 -0.63477 -1.6895 -2.1973 -1.6895 l-1.7285 0 z M52.29495 20 l0 -14.111 l2.9297 0 l0 14.111 l-2.9297 0 z M63.35934375 17.4121 l6.7773 0 l0 2.5879 l-10.283 0 l0 -2.3145 l6.6895 -9.2188 l-6.6797 0 l0 -2.5781 l10.146 0 l0 2.3145 z M80.996121875 20.19531 c-4.1504 0 -7.2168 -2.832 -7.2168 -7.2559 c0 -4.4336 3.0664 -7.2461 7.2168 -7.2461 c4.1406 0 7.207 2.8125 7.207 7.2461 c0 4.4238 -3.0664 7.2559 -7.207 7.2559 z M80.996121875 17.5098 c2.4316 0 4.2969 -1.709 4.2969 -4.5703 c0 -2.8516 -1.8652 -4.5508 -4.2969 -4.5508 s-4.2969 1.6992 -4.2969 4.5508 c0 2.8613 1.8652 4.5703 4.2969 4.5703 z M102.46109375 5.888999999999999 l2.9199 0 l0 14.111 l-3.3887 0 l-6.25 -10.088 l0 10.088 l-2.9199 0 l0 -14.111 l3.3496 0 l6.2891 10.029 l0 -10.029 z"></path></g><g id="SvgjsG2323" featureKey="inlineSymbolFeature-0" transform="matrix(0.6720501887479483,0,0,0.6720501887479483,214.20290574502613,-4.797094254973859)" fill="url(#SvgjsLinearGradient2335)"><g xmlns="http://www.w3.org/2000/svg"><path d="M50,92.862C26.365,92.862,7.138,73.634,7.138,50C7.138,26.366,26.365,7.138,50,7.138c23.635,0,42.862,19.228,42.862,42.861   C92.862,73.634,73.635,92.862,50,92.862z M50,11.138c-21.429,0-38.862,17.434-38.862,38.861c0,21.429,17.433,38.862,38.862,38.862   S88.862,71.428,88.862,50C88.862,28.572,71.428,11.138,50,11.138z"></path><circle cx="50" cy="23.668" r="4.44"></circle><circle cx="37.544" cy="27.926" r="4.44"></circle><circle cx="62.456" cy="27.926" r="4.44"></circle><path d="M50,85.049c1.9,0,3.763-0.157,5.582-0.45L50,33.063l-5.582,51.537C46.237,84.892,48.1,85.049,50,85.049z"></path><path d="M29.959,78.729L35.375,36L20.957,69.6C23.372,73.167,26.431,76.261,29.959,78.729z"></path><path d="M70.041,78.729L64.625,36l14.418,33.6C76.628,73.167,73.569,76.261,70.041,78.729z"></path></g></g><g id="SvgjsG2324" featureKey="nameRightFeature-0" transform="matrix(1.9453482624992977,0,0,1.9453482624992977,279.5976155271764,3.5444063351646182)" fill="url(#SvgjsLinearGradient2338)"><path d="M17.842140625 5.888999999999999 l2.9297 0 l0 14.111 l-2.9297 0 l0 -5.8008 l-5.9668 0 l0 5.8008 l-2.9297 0 l0 -14.111 l2.9297 0 l0 5.7617 l5.9668 0 l0 -5.7617 z M31.572284375 20.19531 c-3.0957 0 -5.5176 -1.582 -5.5176 -5.1367 l0 -9.1699 l2.9297 0 l0 8.7695 c0 2.1484 1.1426 2.9492 2.5879 2.9492 c1.4551 0 2.6074 -0.81055 2.6074 -2.9492 l0 -8.7695 l2.9297 0 l0 9.1699 c0 3.5547 -2.4316 5.1367 -5.5371 5.1367 z M52.03140625 5.888999999999999 l2.9199 0 l0 14.111 l-3.3887 0 l-6.25 -10.088 l0 10.088 l-2.9199 0 l0 -14.111 l3.3496 0 l6.2891 10.029 l0 -10.029 z M68.711171875 5.888999999999999 l0 2.5781 l-3.3496 0 l0 11.533 l-2.9004 0 l0 -11.533 l-3.3691 0 l0 -2.5781 l9.6191 0 z"></path></g>
			</g>
		</svg>
	